<svg xmlns="http://www.w3.org/2000/svg" xmlns:xlink="http://www.w3.org/1999/xlink" width="500" zoomAndPan="magnify" viewBox="0 0 375 374.999991" height="500" preserveAspectRatio="xMidYMid meet" version="1.0"><defs><g/><clipPath id="0943bb1df8"><path d="M 173 169 L 214 169 L 214 231.953125 L 173 231.953125 Z M 173 169 " clip-rule="nonzero"/></clipPath><clipPath id="c6c864cc8c"><path d="M 217 188 L 225.085938 188 L 225.085938 191 L 217 191 Z M 217 188 " clip-rule="nonzero"/></clipPath><clipPath id="69952e9790"><path d="M 162.085938 188 L 171 188 L 171 191 L 162.085938 191 Z M 162.085938 188 " clip-rule="nonzero"/></clipPath><clipPath id="981510cfda"><path d="M 192 157.703125 L 196 157.703125 L 196 166 L 192 166 Z M 192 157.703125 " clip-rule="nonzero"/></clipPath><clipPath id="96e798d8de"><path d="M 35.417969 58.769531 L 337.667969 58.769531 L 337.667969 175 L 35.417969 175 Z M 35.417969 58.769531 " clip-rule="nonzero"/></clipPath></defs><g clip-path="url(#0943bb1df8)"><path fill="#ffffff" d="M 213.867188 190.035156 C 213.867188 187.359375 213.351562 184.757812 212.328125 182.308594 C 211.34375 179.941406 209.933594 177.804688 208.132812 175.964844 C 206.335938 174.125 204.234375 172.667969 201.894531 171.628906 C 199.472656 170.554688 196.894531 169.980469 194.230469 169.914062 C 191.449219 169.847656 188.753906 170.328125 186.210938 171.339844 C 183.757812 172.320312 181.550781 173.753906 179.65625 175.601562 C 177.765625 177.445312 176.28125 179.613281 175.242188 182.042969 C 174.167969 184.554688 173.621094 187.238281 173.617188 190.015625 C 173.613281 192.425781 174.035156 194.789062 174.867188 197.03125 C 175.667969 199.195312 176.832031 201.195312 178.328125 202.972656 C 180.769531 205.878906 182.113281 209.542969 182.113281 213.292969 L 182.113281 213.335938 C 182.113281 214.519531 182.683594 215.574219 183.5625 216.234375 L 183.5625 223.734375 C 183.5625 225.828125 185.050781 227.582031 187.019531 227.996094 C 187.570312 230.25 189.601562 231.925781 192.019531 231.925781 L 195.464844 231.925781 C 197.882812 231.925781 199.914062 230.25 200.464844 227.996094 C 202.4375 227.582031 203.921875 225.828125 203.921875 223.734375 L 203.921875 216.234375 C 204.800781 215.574219 205.371094 214.519531 205.371094 213.335938 C 205.371094 209.566406 206.722656 205.878906 209.171875 202.953125 C 210.660156 201.179688 211.820312 199.1875 212.617188 197.027344 C 213.449219 194.792969 213.867188 192.4375 213.867188 190.035156 Z M 201.304688 216.964844 L 201.304688 219.910156 L 186.183594 219.910156 L 186.183594 216.964844 Z M 195.464844 229.308594 L 192.019531 229.308594 C 191.105469 229.308594 190.304688 228.820312 189.859375 228.089844 L 197.625 228.089844 C 197.179688 228.820312 196.378906 229.308594 195.464844 229.308594 Z M 201.304688 223.734375 C 201.304688 224.691406 200.523438 225.472656 199.566406 225.472656 L 187.917969 225.472656 C 186.960938 225.472656 186.179688 224.691406 186.179688 223.734375 L 186.179688 222.527344 L 201.304688 222.527344 Z M 210.164062 196.117188 C 209.46875 197.996094 208.460938 199.730469 207.167969 201.273438 C 204.320312 204.667969 202.753906 208.953125 202.753906 213.335938 C 202.753906 213.894531 202.300781 214.34375 201.742188 214.34375 L 193.929688 214.34375 C 194.34375 211.824219 194.597656 209.289062 194.695312 206.757812 C 194.785156 204.449219 194.75 202.132812 194.59375 199.828125 C 194.738281 199.683594 195.007812 199.410156 195.007812 199.410156 C 197.097656 197.390625 199.6875 195.902344 202.492188 195.097656 C 202.796875 195.003906 203.167969 194.917969 203.488281 194.839844 C 203.550781 194.832031 203.613281 194.820312 203.671875 194.8125 C 203.871094 194.785156 204.273438 194.734375 204.476562 194.710938 L 204.089844 194.835938 C 203.898438 194.902344 203.507812 195.035156 203.316406 195.101562 C 203.089844 195.195312 202.785156 195.3125 202.558594 195.40625 C 200.730469 196.195312 199.015625 197.328125 197.492188 198.753906 C 198.628906 200.144531 200.480469 200.875 202.363281 200.492188 C 205.066406 199.941406 208.683594 194.105469 208.683594 194.105469 C 208.683594 194.105469 203.070312 190.152344 200.367188 190.703125 C 197.886719 191.207031 196.210938 193.472656 196.382812 195.933594 C 195.675781 196.210938 194.988281 196.535156 194.324219 196.890625 C 194.046875 194.503906 193.636719 192.132812 193.082031 189.796875 C 193.109375 189.78125 193.140625 189.765625 193.167969 189.75 C 195.589844 188.503906 196.542969 185.527344 195.292969 183.105469 C 194.046875 180.683594 187.527344 178.808594 187.527344 178.808594 C 187.527344 178.808594 185.273438 185.203125 186.523438 187.625 C 187.394531 189.3125 189.101562 190.289062 190.878906 190.300781 C 191.03125 188.246094 190.84375 186.226562 190.316406 184.328125 C 190.25 184.097656 190.152344 183.789062 190.082031 183.558594 C 190.015625 183.371094 189.878906 182.984375 189.808594 182.796875 L 189.664062 182.421875 C 189.773438 182.589844 189.984375 182.933594 190.085938 183.105469 C 190.285156 183.429688 190.496094 183.835938 190.667969 184.167969 C 190.832031 184.507812 191.03125 184.925781 191.167969 185.28125 C 191.507812 186.105469 191.777344 186.964844 191.984375 187.847656 C 192.582031 191.550781 192.828125 195.3125 192.730469 199.066406 C 192.515625 198.949219 192.300781 198.835938 192.089844 198.730469 C 191.722656 198.546875 191.34375 198.375 190.960938 198.214844 C 191.117188 195.84375 189.554688 193.628906 187.167969 193.042969 C 184.488281 192.386719 178.722656 196.113281 178.722656 196.113281 C 178.722656 196.113281 182.105469 202.089844 184.785156 202.746094 C 186.652344 203.207031 188.53125 202.546875 189.722656 201.199219 C 188.253906 199.71875 186.589844 198.515625 184.792969 197.65625 C 184.570312 197.554688 184.269531 197.425781 184.046875 197.324219 C 183.859375 197.25 183.472656 197.097656 183.285156 197.027344 L 182.902344 196.886719 C 183.097656 196.914062 183.472656 196.980469 183.679688 197.015625 C 183.832031 197.054688 183.988281 197.089844 184.117188 197.125 C 184.328125 197.1875 184.628906 197.265625 184.835938 197.332031 C 187.734375 198.234375 190.375 199.859375 192.464844 202.042969 C 192.464844 202.042969 192.511719 201.984375 192.59375 201.886719 C 192.289062 206.070312 191.558594 210.222656 190.398438 214.242188 C 190.386719 214.277344 190.378906 214.3125 190.371094 214.34375 L 185.742188 214.34375 C 185.183594 214.34375 184.730469 213.894531 184.730469 213.335938 L 184.730469 213.292969 C 184.730469 208.929688 183.167969 204.667969 180.332031 201.289062 C 179.03125 199.742188 178.019531 198.003906 177.320312 196.121094 C 176.597656 194.171875 176.234375 192.117188 176.234375 190.019531 C 176.238281 187.59375 176.710938 185.257812 177.648438 183.070312 C 178.550781 180.960938 179.839844 179.078125 181.484375 177.472656 C 183.132812 175.867188 185.046875 174.625 187.179688 173.773438 C 189.257812 172.945312 191.457031 172.527344 193.726562 172.527344 C 193.871094 172.527344 194.019531 172.527344 194.167969 172.53125 C 196.484375 172.585938 198.726562 173.089844 200.832031 174.023438 C 202.867188 174.925781 204.695312 176.195312 206.261719 177.796875 C 209.476562 181.085938 211.25 185.433594 211.25 190.035156 C 211.25 192.128906 210.882812 194.171875 210.164062 196.117188 Z M 210.164062 196.117188 " fill-opacity="1" fill-rule="nonzero"/></g><g clip-path="url(#c6c864cc8c)"><path fill="#ffffff" d="M 224.089844 188.054688 L 218.617188 188.054688 C 217.894531 188.054688 217.308594 188.640625 217.308594 189.363281 C 217.308594 190.085938 217.894531 190.671875 218.617188 190.671875 L 224.089844 190.671875 C 224.8125 190.671875 225.398438 190.085938 225.398438 189.363281 C 225.398438 188.640625 224.8125 188.054688 224.089844 188.054688 Z M 224.089844 188.054688 " fill-opacity="1" fill-rule="nonzero"/></g><g clip-path="url(#69952e9790)"><path fill="#ffffff" d="M 168.867188 188.054688 L 163.394531 188.054688 C 162.671875 188.054688 162.085938 188.640625 162.085938 189.363281 C 162.085938 190.085938 162.671875 190.671875 163.394531 190.671875 L 168.867188 190.671875 C 169.589844 190.671875 170.175781 190.085938 170.175781 189.363281 C 170.175781 188.640625 169.589844 188.054688 168.867188 188.054688 Z M 168.867188 188.054688 " fill-opacity="1" fill-rule="nonzero"/></g><path fill="#ffffff" d="M 214.277344 166.976562 L 210.40625 170.847656 C 209.894531 171.359375 209.894531 172.1875 210.40625 172.699219 C 210.660156 172.957031 210.996094 173.082031 211.332031 173.082031 C 211.667969 173.082031 212 172.957031 212.257812 172.699219 L 216.128906 168.828125 C 216.640625 168.316406 216.640625 167.488281 216.128906 166.976562 C 215.617188 166.46875 214.789062 166.46875 214.277344 166.976562 Z M 214.277344 166.976562 " fill-opacity="1" fill-rule="nonzero"/><path fill="#ffffff" d="M 175.226562 206.027344 L 171.355469 209.898438 C 170.84375 210.410156 170.84375 211.238281 171.355469 211.75 C 171.613281 212.003906 171.949219 212.132812 172.28125 212.132812 C 172.617188 212.132812 172.953125 212.003906 173.207031 211.75 L 177.078125 207.878906 C 177.589844 207.367188 177.589844 206.539062 177.078125 206.027344 C 176.566406 205.515625 175.738281 205.515625 175.226562 206.027344 Z M 175.226562 206.027344 " fill-opacity="1" fill-rule="nonzero"/><path fill="#ffffff" d="M 212.257812 206.027344 C 211.746094 205.515625 210.917969 205.515625 210.40625 206.027344 C 209.894531 206.539062 209.894531 207.367188 210.40625 207.878906 L 214.277344 211.75 C 214.53125 212.003906 214.867188 212.132812 215.203125 212.132812 C 215.539062 212.132812 215.871094 212.003906 216.128906 211.75 C 216.640625 211.238281 216.640625 210.410156 216.128906 209.898438 Z M 212.257812 206.027344 " fill-opacity="1" fill-rule="nonzero"/><path fill="#ffffff" d="M 175.226562 172.699219 C 175.484375 172.957031 175.820312 173.082031 176.152344 173.082031 C 176.488281 173.082031 176.824219 172.957031 177.078125 172.699219 C 177.589844 172.1875 177.589844 171.359375 177.078125 170.847656 L 173.207031 166.976562 C 172.695312 166.46875 171.867188 166.46875 171.355469 166.976562 C 170.84375 167.488281 170.84375 168.316406 171.355469 168.828125 Z M 175.226562 172.699219 " fill-opacity="1" fill-rule="nonzero"/><g clip-path="url(#981510cfda)"><path fill="#ffffff" d="M 193.742188 165.796875 C 194.464844 165.796875 195.050781 165.210938 195.050781 164.488281 L 195.050781 159.015625 C 195.050781 158.292969 194.464844 157.707031 193.742188 157.707031 C 193.019531 157.707031 192.433594 158.292969 192.433594 159.015625 L 192.433594 164.488281 C 192.433594 165.210938 193.019531 165.796875 193.742188 165.796875 Z M 193.742188 165.796875 " fill-opacity="1" fill-rule="nonzero"/></g><path fill="#ffffff" d="M 115.941406 228.625 C 92.191406 230.660156 49.914062 250.144531 49.914062 250.144531 L 49.917969 250.148438 C 49.917969 250.148438 93.859375 237.195312 116.960938 236.453125 C 161.453125 235.023438 204.058594 256.625 248.5 254.453125 C 273.457031 253.234375 320.113281 237.234375 320.113281 237.234375 C 320.113281 237.234375 272.402344 247.0625 247.992188 247.015625 C 203.261719 246.9375 160.398438 224.820312 115.941406 228.625 Z M 115.941406 228.625 " fill-opacity="1" fill-rule="nonzero"/><g clip-path="url(#96e798d8de)"><path fill="#ffffff" d="M 278.75 117.242188 L 337.484375 161.375 L 278.75 110.320312 L 275.777344 110.636719 L 235.378906 77.734375 L 212.453125 77.734375 L 189.917969 58.78125 L 154.265625 58.78125 L 35.417969 154.050781 L 71.070312 154.050781 L 189.917969 64.742188 L 256.238281 117.652344 L 215.160156 155.316406 L 235.574219 155.316406 L 267.8125 126.886719 L 327.761719 174.714844 L 269.316406 125.558594 Z M 262.34375 112.050781 L 257.996094 116.039062 L 225.820312 88.976562 L 234.949219 82.386719 L 273.128906 110.914062 Z M 262.34375 112.050781 " fill-opacity="1" fill-rule="nonzero"/></g><path fill="#ffffff" d="M 170.921875 111.601562 L 188.21875 111.601562 L 188.21875 130.109375 L 170.921875 130.109375 Z M 170.921875 111.601562 " fill-opacity="1" fill-rule="nonzero"/><path fill="#ffffff" d="M 191.890625 111.601562 L 209.1875 111.601562 L 209.1875 130.109375 L 191.890625 130.109375 Z M 191.890625 111.601562 " fill-opacity="1" fill-rule="nonzero"/><path fill="#ffffff" d="M 170.929688 133.144531 L 188.226562 133.144531 L 188.226562 151.652344 L 170.929688 151.652344 Z M 170.929688 133.144531 " fill-opacity="1" fill-rule="nonzero"/><path fill="#ffffff" d="M 191.988281 133.035156 L 209.285156 133.035156 L 209.285156 151.542969 L 191.988281 151.542969 Z M 191.988281 133.035156 " fill-opacity="1" fill-rule="nonzero"/><g fill="#ffffff" fill-opacity="1"><g transform="translate(116.078543, 301.348659)"><g><path d="M -0.15625 0.21875 C -0.332031 0.25 -0.472656 0.210938 -0.578125 0.109375 C -0.691406 0.015625 -0.6875 -0.132812 -0.5625 -0.34375 C -0.0195312 -0.96875 0.410156 -1.6875 0.734375 -2.5 C 1.066406 -3.3125 1.328125 -4.222656 1.515625 -5.234375 C 1.703125 -6.242188 1.945312 -8.148438 2.25 -10.953125 C 2.25 -11.160156 2.273438 -11.453125 2.328125 -11.828125 C 2.421875 -12.953125 2.515625 -13.832031 2.609375 -14.46875 C 2.710938 -15.101562 2.863281 -15.910156 3.0625 -16.890625 C 3.269531 -17.867188 3.550781 -18.738281 3.90625 -19.5 C 4.269531 -20.257812 4.726562 -20.953125 5.28125 -21.578125 C 5.53125 -21.898438 5.804688 -22.175781 6.109375 -22.40625 C 6.015625 -22.40625 5.925781 -22.40625 5.84375 -22.40625 C 5.445312 -22.382812 5.046875 -22.296875 4.640625 -22.140625 C 4.640625 -22.140625 4.617188 -22.128906 4.578125 -22.109375 C 3.847656 -21.859375 3.535156 -21.90625 3.640625 -22.25 C 4.035156 -23.207031 4.710938 -23.894531 5.671875 -24.3125 C 6.640625 -24.738281 7.695312 -24.953125 8.84375 -24.953125 C 9.269531 -24.953125 10.285156 -24.867188 11.890625 -24.703125 C 13.492188 -24.546875 14.734375 -24.53125 15.609375 -24.65625 C 15.660156 -24.65625 15.75 -24.671875 15.875 -24.703125 C 16 -24.742188 16.125 -24.789062 16.25 -24.84375 C 16.375 -24.894531 16.507812 -24.929688 16.65625 -24.953125 C 16.800781 -24.984375 16.9375 -25.003906 17.0625 -25.015625 C 17.195312 -25.023438 17.304688 -25.007812 17.390625 -24.96875 C 17.472656 -24.9375 17.53125 -24.882812 17.5625 -24.8125 C 17.632812 -24.582031 17.546875 -24.179688 17.296875 -23.609375 C 17.066406 -23.160156 16.765625 -22.757812 16.390625 -22.40625 C 15.816406 -21.90625 15.132812 -21.570312 14.34375 -21.40625 C 13.5625 -21.25 12.847656 -21.207031 12.203125 -21.28125 C 11.566406 -21.351562 10.828125 -21.488281 9.984375 -21.6875 C 9.773438 -21.71875 9.523438 -21.773438 9.234375 -21.859375 C 8.953125 -21.953125 8.679688 -22.03125 8.421875 -22.09375 C 8.160156 -22.15625 7.914062 -22.207031 7.6875 -22.25 C 7.664062 -22.207031 7.640625 -22.140625 7.609375 -22.046875 C 7.585938 -21.960938 7.5625 -21.878906 7.53125 -21.796875 C 7.507812 -21.722656 7.5 -21.664062 7.5 -21.625 C 7.445312 -21.375 7.410156 -21.082031 7.390625 -20.75 C 7.335938 -20.40625 7.285156 -19.796875 7.234375 -18.921875 C 7.160156 -17.015625 7.023438 -15.273438 6.828125 -13.703125 C 7.523438 -14.078125 8.488281 -14.289062 9.71875 -14.34375 C 11.394531 -14.414062 12.378906 -14.460938 12.671875 -14.484375 C 12.773438 -14.515625 12.945312 -14.578125 13.1875 -14.671875 C 13.425781 -14.773438 13.625 -14.859375 13.78125 -14.921875 C 13.945312 -14.984375 14.101562 -14.988281 14.25 -14.9375 C 14.40625 -14.882812 14.507812 -14.75 14.5625 -14.53125 C 14.65625 -14.03125 14.582031 -13.546875 14.34375 -13.078125 C 14.113281 -12.617188 13.757812 -12.25 13.28125 -11.96875 C 12.550781 -11.519531 11.5625 -11.359375 10.3125 -11.484375 C 9.988281 -11.503906 9.503906 -11.582031 8.859375 -11.71875 C 8.222656 -11.863281 7.742188 -11.960938 7.421875 -12.015625 C 7.148438 -12.035156 6.863281 -11.984375 6.5625 -11.859375 C 6.3125 -10.359375 5.984375 -8.929688 5.578125 -7.578125 C 5.003906 -5.472656 4.253906 -3.773438 3.328125 -2.484375 C 3.859375 -2.628906 4.6875 -2.816406 5.8125 -3.046875 C 6.257812 -3.117188 6.890625 -3.171875 7.703125 -3.203125 C 8.515625 -3.242188 9.097656 -3.273438 9.453125 -3.296875 C 10.597656 -3.453125 11.648438 -4.03125 12.609375 -5.03125 C 12.628906 -5.082031 12.707031 -5.207031 12.84375 -5.40625 C 12.976562 -5.601562 13.113281 -5.769531 13.25 -5.90625 C 13.394531 -6.050781 13.519531 -6.132812 13.625 -6.15625 C 13.84375 -6.207031 13.96875 -6.082031 14 -5.78125 C 14.039062 -5.476562 14.039062 -5.253906 14 -5.109375 C 13.945312 -4.203125 13.734375 -3.398438 13.359375 -2.703125 C 12.753906 -1.578125 11.816406 -0.769531 10.546875 -0.28125 C 9.285156 0.207031 7.992188 0.351562 6.671875 0.15625 C 6.347656 0.101562 5.832031 -0.0078125 5.125 -0.1875 C 4.425781 -0.363281 3.890625 -0.476562 3.515625 -0.53125 C 2.546875 -0.601562 1.832031 -0.578125 1.375 -0.453125 C 1.28125 -0.398438 1.128906 -0.320312 0.921875 -0.21875 C 0.722656 -0.125 0.601562 -0.0625 0.5625 -0.03125 C 0.28125 0.09375 0.0390625 0.175781 -0.15625 0.21875 Z M -0.15625 0.21875 "/></g></g></g><g fill="#ffffff" fill-opacity="1"><g transform="translate(132.927767, 301.348659)"><g><path d="M 4.578125 -0.453125 C 3.328125 -1.097656 2.394531 -2.109375 1.78125 -3.484375 C 1.164062 -4.859375 0.875 -6.335938 0.90625 -7.921875 C 0.925781 -10.992188 1.625 -13.984375 3 -16.890625 C 3.5 -17.960938 4.066406 -18.9375 4.703125 -19.8125 C 5.347656 -20.6875 6.144531 -21.492188 7.09375 -22.234375 C 8.039062 -22.972656 9.039062 -23.457031 10.09375 -23.6875 C 10.644531 -23.8125 11.421875 -23.875 12.421875 -23.875 C 13.421875 -23.875 14.046875 -23.882812 14.296875 -23.90625 C 15.273438 -23.976562 16.078125 -24.179688 16.703125 -24.515625 C 16.753906 -24.554688 16.84375 -24.617188 16.96875 -24.703125 C 17.09375 -24.796875 17.207031 -24.875 17.3125 -24.9375 C 17.425781 -25 17.523438 -25.03125 17.609375 -25.03125 C 17.753906 -25.03125 17.859375 -24.96875 17.921875 -24.84375 C 17.984375 -24.71875 17.960938 -24.59375 17.859375 -24.46875 C 17.035156 -23.46875 15.820312 -22.753906 14.21875 -22.328125 C 13.925781 -22.253906 13.507812 -22.171875 12.96875 -22.078125 C 12.425781 -21.992188 11.941406 -21.894531 11.515625 -21.78125 C 11.097656 -21.675781 10.710938 -21.519531 10.359375 -21.3125 C 8.234375 -20.1875 6.71875 -17.75 5.8125 -14 C 4.988281 -10.644531 4.863281 -7.726562 5.4375 -5.25 C 5.789062 -3.75 6.582031 -2.875 7.8125 -2.625 C 9.207031 -2.375 10.519531 -2.710938 11.75 -3.640625 C 12.269531 -4.035156 12.769531 -4.546875 13.25 -5.171875 C 13.644531 -5.703125 13.90625 -5.96875 14.03125 -5.96875 C 14.132812 -5.988281 14.210938 -5.925781 14.265625 -5.78125 C 14.285156 -5.757812 14.296875 -5.722656 14.296875 -5.671875 C 14.367188 -5.390625 14.15625 -4.75 13.65625 -3.75 C 13.332031 -3.050781 12.921875 -2.441406 12.421875 -1.921875 C 11.441406 -0.867188 10.210938 -0.195312 8.734375 0.09375 C 7.265625 0.382812 5.878906 0.203125 4.578125 -0.453125 Z M 4.578125 -0.453125 "/></g></g></g><g fill="#ffffff" fill-opacity="1"><g transform="translate(149.101517, 301.348659)"><g><path d="M 1.09375 -8.8125 C 0.988281 -12.84375 1.8125 -16.25 3.5625 -19.03125 C 4.84375 -21.082031 6.46875 -22.519531 8.4375 -23.34375 C 9.269531 -23.71875 10.195312 -23.96875 11.21875 -24.09375 C 11.644531 -24.113281 12.242188 -24.125 13.015625 -24.125 C 13.796875 -24.125 14.398438 -24.140625 14.828125 -24.171875 C 15.273438 -24.222656 15.675781 -24.421875 16.03125 -24.765625 C 16.195312 -24.941406 16.304688 -25.03125 16.359375 -25.03125 C 16.484375 -25.03125 16.582031 -24.976562 16.65625 -24.875 C 16.738281 -24.78125 16.753906 -24.679688 16.703125 -24.578125 C 16.523438 -24.179688 16.242188 -23.863281 15.859375 -23.625 C 15.472656 -23.382812 15.109375 -23.226562 14.765625 -23.15625 C 14.429688 -23.082031 13.96875 -23.003906 13.375 -22.921875 C 12.789062 -22.847656 12.398438 -22.800781 12.203125 -22.78125 C 9.898438 -22.28125 8.222656 -20.867188 7.171875 -18.546875 C 6.296875 -16.640625 5.5625 -13.925781 4.96875 -10.40625 C 4.382812 -6.894531 4.328125 -4.488281 4.796875 -3.1875 C 5.171875 -2.164062 5.9375 -1.691406 7.09375 -1.765625 C 8.070312 -1.816406 8.882812 -2.316406 9.53125 -3.265625 C 10.40625 -4.585938 11.179688 -6.585938 11.859375 -9.265625 C 12.535156 -11.941406 12.988281 -14.21875 13.21875 -16.09375 C 13.414062 -17.625 13.375 -18.800781 13.09375 -19.625 C 12.894531 -20.15625 12.617188 -20.53125 12.265625 -20.75 C 12.015625 -20.875 11.742188 -20.9375 11.453125 -20.9375 C 11.171875 -20.9375 10.96875 -20.9375 10.84375 -20.9375 C 10.695312 -20.988281 10.601562 -21.050781 10.5625 -21.125 C 10.53125 -21.207031 10.535156 -21.289062 10.578125 -21.375 C 10.628906 -21.457031 10.691406 -21.535156 10.765625 -21.609375 C 10.847656 -21.691406 10.9375 -21.757812 11.03125 -21.8125 C 11.53125 -22.101562 12.066406 -22.238281 12.640625 -22.21875 C 13.691406 -22.164062 14.550781 -21.679688 15.21875 -20.765625 C 15.882812 -19.859375 16.34375 -18.804688 16.59375 -17.609375 C 17.019531 -15.597656 16.941406 -13.191406 16.359375 -10.390625 C 16.109375 -9.265625 15.78125 -8.175781 15.375 -7.125 C 14.976562 -6.070312 14.476562 -5.023438 13.875 -3.984375 C 13.28125 -2.953125 12.519531 -2.070312 11.59375 -1.34375 C 10.664062 -0.625 9.664062 -0.148438 8.59375 0.078125 C 7.46875 0.328125 6.382812 0.28125 5.34375 -0.0625 C 4.3125 -0.414062 3.472656 -1.035156 2.828125 -1.921875 C 2.191406 -2.816406 1.75 -3.84375 1.5 -5 C 1.25 -6.164062 1.113281 -7.4375 1.09375 -8.8125 Z M 1.09375 -8.8125 "/></g></g></g><g fill="#ffffff" fill-opacity="1"><g transform="translate(167.03899, 301.348659)"><g><path d="M 10.6875 -11.75 C 10.757812 -11.675781 10.851562 -11.5625 10.96875 -11.40625 C 11.082031 -11.257812 11.1875 -11.082031 11.28125 -10.875 C 11.382812 -10.675781 11.429688 -10.492188 11.421875 -10.328125 C 11.410156 -10.171875 11.316406 -10.082031 11.140625 -10.0625 C 11.066406 -10.03125 10.96875 -10.023438 10.84375 -10.046875 C 10.71875 -10.078125 10.582031 -10.109375 10.4375 -10.140625 C 10.300781 -10.179688 10.195312 -10.203125 10.125 -10.203125 C 9.875 -10.203125 9.460938 -10.164062 8.890625 -10.09375 C 6.390625 -9.769531 4.535156 -9.734375 3.328125 -9.984375 C 2.203125 -10.210938 1.34375 -10.625 0.75 -11.21875 C 0.414062 -11.539062 0.1875 -11.878906 0.0625 -12.234375 C 0.0195312 -12.378906 0.0195312 -12.539062 0.0625 -12.71875 C 0.113281 -12.894531 0.238281 -12.957031 0.4375 -12.90625 C 0.9375 -12.757812 1.773438 -12.757812 2.953125 -12.90625 C 4.109375 -13.0625 5.007812 -13.148438 5.65625 -13.171875 C 7.988281 -13.222656 9.664062 -12.75 10.6875 -11.75 Z M 10.6875 -11.75 "/></g></g></g><g fill="#ffffff" fill-opacity="1"><g transform="translate(179.497668, 301.348659)"><g><path d="M 4.578125 -0.453125 C 3.328125 -1.097656 2.394531 -2.109375 1.78125 -3.484375 C 1.164062 -4.859375 0.875 -6.335938 0.90625 -7.921875 C 0.925781 -10.992188 1.625 -13.984375 3 -16.890625 C 3.5 -17.960938 4.066406 -18.9375 4.703125 -19.8125 C 5.347656 -20.6875 6.144531 -21.492188 7.09375 -22.234375 C 8.039062 -22.972656 9.039062 -23.457031 10.09375 -23.6875 C 10.644531 -23.8125 11.421875 -23.875 12.421875 -23.875 C 13.421875 -23.875 14.046875 -23.882812 14.296875 -23.90625 C 15.273438 -23.976562 16.078125 -24.179688 16.703125 -24.515625 C 16.753906 -24.554688 16.84375 -24.617188 16.96875 -24.703125 C 17.09375 -24.796875 17.207031 -24.875 17.3125 -24.9375 C 17.425781 -25 17.523438 -25.03125 17.609375 -25.03125 C 17.753906 -25.03125 17.859375 -24.96875 17.921875 -24.84375 C 17.984375 -24.71875 17.960938 -24.59375 17.859375 -24.46875 C 17.035156 -23.46875 15.820312 -22.753906 14.21875 -22.328125 C 13.925781 -22.253906 13.507812 -22.171875 12.96875 -22.078125 C 12.425781 -21.992188 11.941406 -21.894531 11.515625 -21.78125 C 11.097656 -21.675781 10.710938 -21.519531 10.359375 -21.3125 C 8.234375 -20.1875 6.71875 -17.75 5.8125 -14 C 4.988281 -10.644531 4.863281 -7.726562 5.4375 -5.25 C 5.789062 -3.75 6.582031 -2.875 7.8125 -2.625 C 9.207031 -2.375 10.519531 -2.710938 11.75 -3.640625 C 12.269531 -4.035156 12.769531 -4.546875 13.25 -5.171875 C 13.644531 -5.703125 13.90625 -5.96875 14.03125 -5.96875 C 14.132812 -5.988281 14.210938 -5.925781 14.265625 -5.78125 C 14.285156 -5.757812 14.296875 -5.722656 14.296875 -5.671875 C 14.367188 -5.390625 14.15625 -4.75 13.65625 -3.75 C 13.332031 -3.050781 12.921875 -2.441406 12.421875 -1.921875 C 11.441406 -0.867188 10.210938 -0.195312 8.734375 0.09375 C 7.265625 0.382812 5.878906 0.203125 4.578125 -0.453125 Z M 4.578125 -0.453125 "/></g></g></g><g fill="#ffffff" fill-opacity="1"><g transform="translate(195.671418, 301.348659)"><g><path d="M -0.078125 0.21875 C -0.253906 0.269531 -0.414062 0.238281 -0.5625 0.125 C -0.71875 0.0195312 -0.734375 -0.132812 -0.609375 -0.34375 C -0.128906 -0.9375 0.269531 -1.570312 0.59375 -2.25 C 0.914062 -2.925781 1.148438 -3.71875 1.296875 -4.625 C 1.453125 -5.539062 1.5625 -6.257812 1.625 -6.78125 C 1.6875 -7.3125 1.75 -8.164062 1.8125 -9.34375 C 1.875 -10.519531 1.90625 -11.269531 1.90625 -11.59375 C 2.03125 -13.175781 2.15625 -14.476562 2.28125 -15.5 C 2.40625 -16.53125 2.6875 -17.722656 3.125 -19.078125 C 3.5625 -20.441406 4.144531 -21.601562 4.875 -22.5625 C 5.445312 -23.3125 6.082031 -23.894531 6.78125 -24.3125 C 7.988281 -25.070312 8.691406 -25.238281 8.890625 -24.8125 C 8.910156 -24.707031 8.898438 -24.609375 8.859375 -24.515625 C 8.828125 -24.429688 8.75 -24.3125 8.625 -24.15625 C 8.5 -24.007812 8.4375 -23.9375 8.4375 -23.9375 C 8.164062 -23.539062 7.925781 -23.128906 7.71875 -22.703125 C 7.34375 -21.929688 7.070312 -21.003906 6.90625 -19.921875 C 6.695312 -18.703125 6.523438 -16.765625 6.390625 -14.109375 C 6.253906 -11.460938 6.050781 -9.445312 5.78125 -8.0625 C 5.269531 -5.59375 4.453125 -3.628906 3.328125 -2.171875 C 2.703125 -1.367188 1.988281 -0.742188 1.1875 -0.296875 C 0.71875 -0.0234375 0.296875 0.144531 -0.078125 0.21875 Z M -0.078125 0.21875 "/></g></g></g><g fill="#ffffff" fill-opacity="1"><g transform="translate(203.814581, 301.348659)"><g><path d="M 3 -20.9375 C 2.976562 -20.9375 2.921875 -20.925781 2.828125 -20.90625 C 2.742188 -20.882812 2.664062 -20.863281 2.59375 -20.84375 C 2.519531 -20.832031 2.4375 -20.820312 2.34375 -20.8125 C 2.257812 -20.800781 2.1875 -20.800781 2.125 -20.8125 C 2.0625 -20.820312 2 -20.835938 1.9375 -20.859375 C 1.875 -20.890625 1.828125 -20.9375 1.796875 -21 C 1.773438 -21.0625 1.773438 -21.144531 1.796875 -21.25 C 2.003906 -22.320312 2.585938 -23.175781 3.546875 -23.8125 C 4.503906 -24.445312 5.570312 -24.828125 6.75 -24.953125 C 7.75 -25.003906 8.472656 -25.003906 8.921875 -24.953125 C 9.378906 -24.910156 10.101562 -24.804688 11.09375 -24.640625 C 12.082031 -24.472656 12.800781 -24.363281 13.25 -24.3125 C 13.820312 -24.238281 14.347656 -24.265625 14.828125 -24.390625 C 14.898438 -24.390625 15.003906 -24.421875 15.140625 -24.484375 C 15.273438 -24.546875 15.394531 -24.597656 15.5 -24.640625 C 15.601562 -24.679688 15.71875 -24.707031 15.84375 -24.71875 C 15.96875 -24.726562 16.066406 -24.707031 16.140625 -24.65625 C 16.390625 -24.476562 16.363281 -24.039062 16.0625 -23.34375 C 15.882812 -22.863281 15.597656 -22.4375 15.203125 -22.0625 C 14.128906 -21.007812 12.515625 -20.507812 10.359375 -20.5625 C 10.253906 -20.4375 10.117188 -20.273438 9.953125 -20.078125 C 9.796875 -19.878906 9.707031 -19.753906 9.6875 -19.703125 C 9.03125 -18.554688 8.640625 -16.816406 8.515625 -14.484375 C 8.492188 -14.085938 8.457031 -13.171875 8.40625 -11.734375 C 8.351562 -10.296875 8.300781 -9.175781 8.25 -8.375 C 8 -5.644531 7.328125 -3.539062 6.234375 -2.0625 C 5.929688 -1.632812 5.582031 -1.257812 5.1875 -0.9375 C 4.800781 -0.613281 4.382812 -0.335938 3.9375 -0.109375 C 3.382812 0.140625 2.835938 0.25 2.296875 0.21875 C 1.910156 0.195312 1.820312 0.0234375 2.03125 -0.296875 C 2.175781 -0.578125 2.320312 -0.882812 2.46875 -1.21875 C 2.625 -1.550781 2.75 -1.847656 2.84375 -2.109375 C 2.945312 -2.378906 3.046875 -2.726562 3.140625 -3.15625 C 3.242188 -3.582031 3.320312 -3.890625 3.375 -4.078125 C 3.425781 -4.265625 3.488281 -4.613281 3.5625 -5.125 C 3.632812 -5.632812 3.679688 -5.953125 3.703125 -6.078125 C 3.734375 -6.203125 3.78125 -6.5625 3.84375 -7.15625 C 3.90625 -7.757812 3.953125 -8.085938 3.984375 -8.140625 C 4.003906 -8.390625 4.050781 -8.820312 4.125 -9.4375 C 4.195312 -10.050781 4.253906 -10.515625 4.296875 -10.828125 C 4.335938 -11.140625 4.394531 -11.5625 4.46875 -12.09375 C 4.539062 -12.632812 4.613281 -13.09375 4.6875 -13.46875 C 4.757812 -13.84375 4.851562 -14.257812 4.96875 -14.71875 C 5.082031 -15.1875 5.210938 -15.632812 5.359375 -16.0625 C 5.992188 -17.96875 6.882812 -19.394531 8.03125 -20.34375 C 8.15625 -20.46875 8.304688 -20.578125 8.484375 -20.671875 C 6.203125 -20.972656 5.035156 -21.125 4.984375 -21.125 C 4.335938 -21.15625 3.675781 -21.09375 3 -20.9375 Z M 3 -20.9375 "/></g></g></g><g fill="#ffffff" fill-opacity="1"><g transform="translate(218.52481, 301.348659)"><g><path d="M 7.765625 -9.953125 C 6.410156 -10.171875 5.257812 -10.816406 4.3125 -11.890625 C 3.40625 -12.921875 2.835938 -14.179688 2.609375 -15.671875 C 2.390625 -17.160156 2.492188 -18.539062 2.921875 -19.8125 C 3.316406 -21.34375 3.992188 -22.617188 4.953125 -23.640625 C 5.523438 -24.242188 6.097656 -24.660156 6.671875 -24.890625 C 7.171875 -25.054688 7.5 -25.066406 7.65625 -24.921875 C 7.820312 -24.742188 7.820312 -24.566406 7.65625 -24.390625 C 7.226562 -23.796875 6.921875 -22.707031 6.734375 -21.125 C 6.546875 -19.550781 6.550781 -18.101562 6.75 -16.78125 C 6.945312 -15.195312 7.4375 -13.96875 8.21875 -13.09375 C 8.5625 -12.664062 9.0625 -12.253906 9.71875 -11.859375 C 9.71875 -11.859375 9.914062 -11.742188 10.3125 -11.515625 C 10.4375 -12.046875 10.546875 -12.609375 10.640625 -13.203125 C 10.742188 -13.804688 10.851562 -14.445312 10.96875 -15.125 C 11.082031 -15.800781 11.175781 -16.363281 11.25 -16.8125 C 11.445312 -17.84375 11.632812 -18.703125 11.8125 -19.390625 C 11.988281 -20.078125 12.28125 -20.847656 12.6875 -21.703125 C 13.101562 -22.566406 13.601562 -23.273438 14.1875 -23.828125 C 14.6875 -24.328125 15.222656 -24.679688 15.796875 -24.890625 C 16.296875 -25.054688 16.847656 -25.09375 17.453125 -25 C 17.921875 -24.925781 18.003906 -24.722656 17.703125 -24.390625 C 17.628906 -24.296875 17.476562 -24.164062 17.25 -24 C 17.03125 -23.832031 16.867188 -23.703125 16.765625 -23.609375 C 16.546875 -23.328125 16.359375 -23.023438 16.203125 -22.703125 C 15.929688 -22.023438 15.71875 -20.835938 15.5625 -19.140625 C 15.4375 -17.441406 15.316406 -16.128906 15.203125 -15.203125 C 15.097656 -14.273438 14.910156 -13.09375 14.640625 -11.65625 C 14.378906 -10.21875 14 -8.921875 13.5 -7.765625 C 13 -6.617188 12.375 -5.554688 11.625 -4.578125 C 10.070312 -2.503906 7.867188 -1.078125 5.015625 -0.296875 C 4.117188 -0.046875 3.171875 0.113281 2.171875 0.1875 C 1.492188 0.238281 0.789062 0.238281 0.0625 0.1875 C 0.0390625 0.1875 -0.00390625 0.1875 -0.078125 0.1875 C -0.378906 0.1875 -0.566406 0.125 -0.640625 0 C -0.765625 -0.226562 -0.703125 -0.390625 -0.453125 -0.484375 C 2.492188 -1.515625 4.671875 -2.628906 6.078125 -3.828125 C 7.796875 -5.273438 9.035156 -7.140625 9.796875 -9.421875 C 9.835938 -9.617188 9.898438 -9.84375 9.984375 -10.09375 L 9.90625 -10.0625 L 9.859375 -10.0625 C 9.160156 -9.882812 8.460938 -9.847656 7.765625 -9.953125 Z M 7.765625 -9.953125 "/></g></g></g></svg>